<svg width="26" height="25" viewBox="0 0 26 25" fill="none" xmlns="http://www.w3.org/2000/svg">
<path fill-rule="evenodd" clip-rule="evenodd" d="M12.3902 3.04878C7.50558 3.04878 3.54878 7.00354 3.54878 11.8783C3.54878 16.753 7.50558 20.7078 12.3902 20.7078C14.8273 20.7078 17.0313 19.7252 18.6319 18.1319C20.2398 16.5314 21.2317 14.3218 21.2317 11.8783C21.2317 7.00354 17.2749 3.04878 12.3902 3.04878ZM0.5 11.8783C0.5 5.31643 5.8251 0 12.3902 0C18.9554 0 24.2805 5.31643 24.2805 11.8783C24.2805 14.6149 23.3527 17.1368 21.7967 19.1447L25.0529 22.3971C25.6486 22.992 25.6491 23.9572 25.0541 24.5529C24.4592 25.1485 23.494 25.1491 22.8983 24.5541L19.6367 21.2963C17.631 22.8383 15.1169 23.7566 12.3902 23.7566C5.8251 23.7566 0.5 18.4401 0.5 11.8783Z" fill="black"/>
</svg>
