<svg width="120" height="24" viewBox="0 0 120 24" fill="none" xmlns="http://www.w3.org/2000/svg">
<path d="M13.7299 3.50989L15.4899 7.02989C15.7299 7.51989 16.3699 7.98989 16.9099 8.07989L20.0999 8.60989C22.1399 8.94989 22.6199 10.4299 21.1499 11.8899L18.6699 14.3699C18.2499 14.7899 18.0199 15.5999 18.1499 16.1799L18.8599 19.2499C19.4199 21.6799 18.1299 22.6199 15.9799 21.3499L12.9899 19.5799C12.4499 19.2599 11.5599 19.2599 11.0099 19.5799L8.01991 21.3499C5.87991 22.6199 4.57991 21.6699 5.13991 19.2499L5.84991 16.1799C5.97991 15.5999 5.74991 14.7899 5.32991 14.3699L2.84991 11.8899C1.38991 10.4299 1.85991 8.94989 3.89991 8.60989L7.08991 8.07989C7.61991 7.98989 8.25991 7.51989 8.49991 7.02989L10.2599 3.50989C11.2199 1.59989 12.7799 1.59989 13.7299 3.50989Z" fill="#EF980C"/>
<path d="M37.7299 3.50989L39.4899 7.02989C39.7299 7.51989 40.3699 7.98989 40.9099 8.07989L44.0999 8.60989C46.1399 8.94989 46.6199 10.4299 45.1499 11.8899L42.6699 14.3699C42.2499 14.7899 42.0199 15.5999 42.1499 16.1799L42.8599 19.2499C43.4199 21.6799 42.1299 22.6199 39.9799 21.3499L36.9899 19.5799C36.4499 19.2599 35.5599 19.2599 35.0099 19.5799L32.0199 21.3499C29.8799 22.6199 28.5799 21.6699 29.1399 19.2499L29.8499 16.1799C29.9799 15.5999 29.7499 14.7899 29.3299 14.3699L26.8499 11.8899C25.3899 10.4299 25.8599 8.94989 27.8999 8.60989L31.0899 8.07989C31.6199 7.98989 32.2599 7.51989 32.4999 7.02989L34.2599 3.50989C35.2199 1.59989 36.7799 1.59989 37.7299 3.50989Z" fill="#EF980C"/>
<path d="M61.7299 3.50989L63.4899 7.02989C63.7299 7.51989 64.3699 7.98989 64.9099 8.07989L68.0999 8.60989C70.1399 8.94989 70.6199 10.4299 69.1499 11.8899L66.6699 14.3699C66.2499 14.7899 66.0199 15.5999 66.1499 16.1799L66.8599 19.2499C67.4199 21.6799 66.1299 22.6199 63.9799 21.3499L60.9899 19.5799C60.4499 19.2599 59.5599 19.2599 59.0099 19.5799L56.0199 21.3499C53.8799 22.6199 52.5799 21.6699 53.1399 19.2499L53.8499 16.1799C53.9799 15.5999 53.7499 14.7899 53.3299 14.3699L50.8499 11.8899C49.3899 10.4299 49.8599 8.94989 51.8999 8.60989L55.0899 8.07989C55.6199 7.98989 56.2599 7.51989 56.4999 7.02989L58.2599 3.50989C59.2199 1.59989 60.7799 1.59989 61.7299 3.50989Z" fill="#EF980C"/>
<path d="M85.7299 3.50989L87.4899 7.02989C87.7299 7.51989 88.3699 7.98989 88.9099 8.07989L92.0999 8.60989C94.1399 8.94989 94.6199 10.4299 93.1499 11.8899L90.6699 14.3699C90.2499 14.7899 90.0199 15.5999 90.1499 16.1799L90.8599 19.2499C91.4199 21.6799 90.1299 22.6199 87.9799 21.3499L84.9899 19.5799C84.4499 19.2599 83.5599 19.2599 83.0099 19.5799L80.0199 21.3499C77.8799 22.6199 76.5799 21.6699 77.1399 19.2499L77.8499 16.1799C77.9799 15.5999 77.7499 14.7899 77.3299 14.3699L74.8499 11.8899C73.3899 10.4299 73.8599 8.94989 75.8999 8.60989L79.0899 8.07989C79.6199 7.98989 80.2599 7.51989 80.4999 7.02989L82.2599 3.50989C83.2199 1.59989 84.7799 1.59989 85.7299 3.50989Z" fill="#EF980C"/>
<path d="M109.73 3.50989L111.49 7.02989C111.73 7.51989 112.37 7.98989 112.91 8.07989L116.1 8.60989C118.14 8.94989 118.62 10.4299 117.15 11.8899L114.67 14.3699C114.25 14.7899 114.02 15.5999 114.15 16.1799L114.86 19.2499C115.42 21.6799 114.13 22.6199 111.98 21.3499L108.99 19.5799C108.45 19.2599 107.56 19.2599 107.01 19.5799L104.02 21.3499C101.88 22.6199 100.58 21.6699 101.14 19.2499L101.85 16.1799C101.98 15.5999 101.75 14.7899 101.33 14.3699L98.85 11.8899C97.39 10.4299 97.86 8.94989 99.9 8.60989L103.09 8.07989C103.62 7.98989 104.26 7.51989 104.5 7.02989L106.26 3.50989C107.22 1.59989 108.78 1.59989 109.73 3.50989Z" stroke="#EF980C" stroke-width="1.5" stroke-linecap="round" stroke-linejoin="round"/>
</svg>
