<svg width="34" height="34" viewBox="0 0 34 34" fill="none" xmlns="http://www.w3.org/2000/svg">
<path d="M10.0167 0.333374H23.9834C30.0501 0.333374 33.6667 3.95004 33.6667 10.0167V23.9667C33.6667 30.05 30.0501 33.6667 23.9834 33.6667H10.0334C3.96675 33.6667 0.350082 30.05 0.350082 23.9834V10.0167C0.333416 3.95004 3.95008 0.333374 10.0167 0.333374ZM14.0167 22C13.5334 22.4834 13.5334 23.2834 14.0167 23.7667C14.2667 24.0167 14.5834 24.1334 14.9001 24.1334C15.2167 24.1334 15.5334 24.0167 15.7834 23.7667L21.6667 17.8834C22.1501 17.4 22.1501 16.6 21.6667 16.1167L15.7834 10.2334C15.3001 9.75004 14.5001 9.75004 14.0167 10.2334C13.5334 10.7167 13.5334 11.5167 14.0167 12L19.0167 17L14.0167 22Z" fill="#476FD3"/>
</svg>
